<mxfile host="app.diagrams.net" modified="2021-12-03T00:22:25.757Z" agent="5.0 (Windows)" etag="YDf0L8AuUpNH5hYqytcD" version="15.8.9" type="github">
  <diagram id="C5RBs43oDa-KdzZeNtuy" name="Flowchart Alur Kerja Penelitian">
    <mxGraphModel dx="865" dy="463" grid="1" gridSize="10" guides="1" tooltips="1" connect="1" arrows="1" fold="1" page="1" pageScale="1" pageWidth="827" pageHeight="1169" math="0" shadow="0">
      <root>
        <mxCell id="WIyWlLk6GJQsqaUBKTNV-0" />
        <mxCell id="WIyWlLk6GJQsqaUBKTNV-1" parent="WIyWlLk6GJQsqaUBKTNV-0" />
        <mxCell id="bWyKYytc7MRD8ci_lOKq-19" style="edgeStyle=orthogonalEdgeStyle;rounded=0;orthogonalLoop=1;jettySize=auto;html=1;entryX=0.5;entryY=0;entryDx=0;entryDy=0;fontColor=default;fontFamily=Times New Roman;fontStyle=1;labelBackgroundColor=none;strokeWidth=1;shadow=0;" parent="WIyWlLk6GJQsqaUBKTNV-1" source="bWyKYytc7MRD8ci_lOKq-1" target="bWyKYytc7MRD8ci_lOKq-2" edge="1">
          <mxGeometry relative="1" as="geometry" />
        </mxCell>
        <mxCell id="bWyKYytc7MRD8ci_lOKq-1" value="&lt;div&gt;Dataset Hasil &lt;br&gt;&lt;/div&gt;&lt;div&gt;Survey Online&lt;/div&gt;" style="strokeWidth=1;html=1;shape=mxgraph.flowchart.multi-document;whiteSpace=wrap;labelBackgroundColor=none;fontColor=default;fillColor=default;fontFamily=Times New Roman;fontStyle=1;shadow=0;" parent="WIyWlLk6GJQsqaUBKTNV-1" vertex="1">
          <mxGeometry x="200" y="220" width="120" height="80" as="geometry" />
        </mxCell>
        <mxCell id="Ewnjw3w6Bs5T4CTr_bgc-1" style="edgeStyle=orthogonalEdgeStyle;rounded=0;orthogonalLoop=1;jettySize=auto;html=1;entryX=0.5;entryY=0;entryDx=0;entryDy=0;entryPerimeter=0;shadow=0;strokeWidth=1;" edge="1" parent="WIyWlLk6GJQsqaUBKTNV-1" source="bWyKYytc7MRD8ci_lOKq-2" target="bWyKYytc7MRD8ci_lOKq-9">
          <mxGeometry relative="1" as="geometry" />
        </mxCell>
        <mxCell id="bWyKYytc7MRD8ci_lOKq-2" value="" style="rounded=1;whiteSpace=wrap;html=1;absoluteArcSize=1;arcSize=14;strokeWidth=1;labelBackgroundColor=none;fontColor=default;fillColor=default;fontFamily=Times New Roman;fontStyle=1;shadow=0;" parent="WIyWlLk6GJQsqaUBKTNV-1" vertex="1">
          <mxGeometry x="180" y="360" width="160" height="320" as="geometry" />
        </mxCell>
        <mxCell id="bWyKYytc7MRD8ci_lOKq-20" style="edgeStyle=orthogonalEdgeStyle;rounded=0;orthogonalLoop=1;jettySize=auto;html=1;entryX=0.5;entryY=0;entryDx=0;entryDy=0;fontColor=default;fontFamily=Times New Roman;fontStyle=1;labelBackgroundColor=none;strokeWidth=1;shadow=0;" parent="WIyWlLk6GJQsqaUBKTNV-1" source="bWyKYytc7MRD8ci_lOKq-3" target="bWyKYytc7MRD8ci_lOKq-4" edge="1">
          <mxGeometry relative="1" as="geometry" />
        </mxCell>
        <mxCell id="bWyKYytc7MRD8ci_lOKq-3" value="Pendeteksian &lt;i&gt;Missing Value&lt;/i&gt; " style="rounded=1;whiteSpace=wrap;html=1;absoluteArcSize=1;arcSize=14;strokeWidth=1;labelBackgroundColor=none;fontColor=default;fillColor=default;gradientColor=none;fontFamily=Times New Roman;fontStyle=1;shadow=0;" parent="WIyWlLk6GJQsqaUBKTNV-1" vertex="1">
          <mxGeometry x="210" y="380" width="100" height="80" as="geometry" />
        </mxCell>
        <mxCell id="Ewnjw3w6Bs5T4CTr_bgc-2" style="edgeStyle=orthogonalEdgeStyle;rounded=0;orthogonalLoop=1;jettySize=auto;html=1;shadow=0;strokeWidth=1;" edge="1" parent="WIyWlLk6GJQsqaUBKTNV-1" source="bWyKYytc7MRD8ci_lOKq-4" target="Ewnjw3w6Bs5T4CTr_bgc-0">
          <mxGeometry relative="1" as="geometry" />
        </mxCell>
        <mxCell id="bWyKYytc7MRD8ci_lOKq-4" value="&lt;div&gt;Normalisasi &lt;br&gt;&lt;/div&gt;&lt;div&gt;Data&lt;/div&gt;" style="rounded=1;whiteSpace=wrap;html=1;absoluteArcSize=1;arcSize=14;strokeWidth=1;labelBackgroundColor=none;fontColor=default;fillColor=default;gradientColor=none;fontFamily=Times New Roman;fontStyle=1;shadow=0;" parent="WIyWlLk6GJQsqaUBKTNV-1" vertex="1">
          <mxGeometry x="210" y="480" width="100" height="80" as="geometry" />
        </mxCell>
        <mxCell id="bWyKYytc7MRD8ci_lOKq-6" value="" style="strokeWidth=1;html=1;shape=mxgraph.flowchart.annotation_2;align=left;labelPosition=right;pointerEvents=1;labelBackgroundColor=none;fontColor=default;fillColor=default;gradientColor=none;strokeColor=default;fontFamily=Times New Roman;fontStyle=1;whiteSpace=wrap;shadow=0;" parent="WIyWlLk6GJQsqaUBKTNV-1" vertex="1">
          <mxGeometry x="120" y="390" width="50" height="260" as="geometry" />
        </mxCell>
        <mxCell id="bWyKYytc7MRD8ci_lOKq-7" value="Preprocessing" style="text;html=1;align=center;verticalAlign=middle;resizable=0;points=[];autosize=1;strokeColor=none;fillColor=none;fontColor=default;fontFamily=Times New Roman;fontStyle=1;labelBackgroundColor=none;strokeWidth=1;shadow=0;rotation=270;" parent="WIyWlLk6GJQsqaUBKTNV-1" vertex="1">
          <mxGeometry x="60" y="510" width="90" height="20" as="geometry" />
        </mxCell>
        <mxCell id="bWyKYytc7MRD8ci_lOKq-9" value="X" style="strokeWidth=1;html=1;shape=mxgraph.flowchart.start_2;whiteSpace=wrap;labelBackgroundColor=none;fontColor=default;fillColor=default;gradientColor=none;fontFamily=Times New Roman;fontStyle=1;shadow=0;" parent="WIyWlLk6GJQsqaUBKTNV-1" vertex="1">
          <mxGeometry x="230" y="710" width="60" height="60" as="geometry" />
        </mxCell>
        <mxCell id="bWyKYytc7MRD8ci_lOKq-23" style="edgeStyle=orthogonalEdgeStyle;rounded=0;orthogonalLoop=1;jettySize=auto;html=1;entryX=0.5;entryY=0;entryDx=0;entryDy=0;fontColor=default;fontFamily=Times New Roman;fontStyle=1;labelBackgroundColor=none;strokeWidth=1;shadow=0;" parent="WIyWlLk6GJQsqaUBKTNV-1" source="bWyKYytc7MRD8ci_lOKq-10" target="bWyKYytc7MRD8ci_lOKq-12" edge="1">
          <mxGeometry relative="1" as="geometry" />
        </mxCell>
        <mxCell id="bWyKYytc7MRD8ci_lOKq-24" style="edgeStyle=orthogonalEdgeStyle;rounded=0;orthogonalLoop=1;jettySize=auto;html=1;entryX=0.5;entryY=0;entryDx=0;entryDy=0;fontColor=default;fontFamily=Times New Roman;fontStyle=1;labelBackgroundColor=none;strokeWidth=1;shadow=0;" parent="WIyWlLk6GJQsqaUBKTNV-1" source="bWyKYytc7MRD8ci_lOKq-10" target="bWyKYytc7MRD8ci_lOKq-11" edge="1">
          <mxGeometry relative="1" as="geometry" />
        </mxCell>
        <mxCell id="bWyKYytc7MRD8ci_lOKq-10" value="X" style="strokeWidth=1;html=1;shape=mxgraph.flowchart.start_2;whiteSpace=wrap;labelBackgroundColor=none;fontColor=default;fillColor=default;gradientColor=none;fontFamily=Times New Roman;fontStyle=1;shadow=0;" parent="WIyWlLk6GJQsqaUBKTNV-1" vertex="1">
          <mxGeometry x="460" y="90" width="60" height="60" as="geometry" />
        </mxCell>
        <mxCell id="bWyKYytc7MRD8ci_lOKq-25" style="edgeStyle=orthogonalEdgeStyle;rounded=0;orthogonalLoop=1;jettySize=auto;html=1;entryX=0;entryY=0.5;entryDx=0;entryDy=0;fontColor=default;exitX=0.5;exitY=1;exitDx=0;exitDy=0;fontFamily=Times New Roman;fontStyle=1;labelBackgroundColor=none;strokeWidth=1;shadow=0;" parent="WIyWlLk6GJQsqaUBKTNV-1" source="bWyKYytc7MRD8ci_lOKq-11" target="bWyKYytc7MRD8ci_lOKq-14" edge="1">
          <mxGeometry relative="1" as="geometry">
            <Array as="points">
              <mxPoint x="410" y="510" />
            </Array>
          </mxGeometry>
        </mxCell>
        <mxCell id="bWyKYytc7MRD8ci_lOKq-11" value="&lt;div&gt;Data Test &lt;br&gt;&lt;/div&gt;&lt;div&gt;20%&lt;br&gt;&lt;/div&gt;" style="shape=parallelogram;html=1;strokeWidth=1;perimeter=parallelogramPerimeter;whiteSpace=wrap;rounded=1;arcSize=12;size=0.23;labelBackgroundColor=none;fontColor=default;fillColor=default;gradientColor=none;fontFamily=Times New Roman;fontStyle=1;shadow=0;" parent="WIyWlLk6GJQsqaUBKTNV-1" vertex="1">
          <mxGeometry x="360" y="230" width="100" height="60" as="geometry" />
        </mxCell>
        <mxCell id="bWyKYytc7MRD8ci_lOKq-26" style="edgeStyle=orthogonalEdgeStyle;rounded=0;orthogonalLoop=1;jettySize=auto;html=1;entryX=0.5;entryY=0;entryDx=0;entryDy=0;fontColor=default;fontFamily=Times New Roman;fontStyle=1;labelBackgroundColor=none;strokeWidth=1;shadow=0;" parent="WIyWlLk6GJQsqaUBKTNV-1" source="bWyKYytc7MRD8ci_lOKq-12" target="bWyKYytc7MRD8ci_lOKq-13" edge="1">
          <mxGeometry relative="1" as="geometry" />
        </mxCell>
        <mxCell id="bWyKYytc7MRD8ci_lOKq-12" value="&lt;div&gt;Data Train&lt;/div&gt;&lt;div&gt;80%&lt;br&gt;&lt;/div&gt;" style="shape=parallelogram;html=1;strokeWidth=1;perimeter=parallelogramPerimeter;whiteSpace=wrap;rounded=1;arcSize=12;size=0.23;labelBackgroundColor=none;fontColor=default;fillColor=default;gradientColor=none;fontFamily=Times New Roman;fontStyle=1;shadow=0;" parent="WIyWlLk6GJQsqaUBKTNV-1" vertex="1">
          <mxGeometry x="520" y="230" width="100" height="60" as="geometry" />
        </mxCell>
        <mxCell id="bWyKYytc7MRD8ci_lOKq-27" style="edgeStyle=orthogonalEdgeStyle;rounded=0;orthogonalLoop=1;jettySize=auto;html=1;entryX=0.5;entryY=0;entryDx=0;entryDy=0;fontColor=default;fontFamily=Times New Roman;fontStyle=1;labelBackgroundColor=none;strokeWidth=1;shadow=0;" parent="WIyWlLk6GJQsqaUBKTNV-1" source="bWyKYytc7MRD8ci_lOKq-13" target="bWyKYytc7MRD8ci_lOKq-14" edge="1">
          <mxGeometry relative="1" as="geometry" />
        </mxCell>
        <mxCell id="bWyKYytc7MRD8ci_lOKq-13" value="Implementasi Back Propagation Neural Network" style="rounded=1;whiteSpace=wrap;html=1;absoluteArcSize=1;arcSize=14;strokeWidth=1;labelBackgroundColor=none;fontColor=default;fillColor=default;gradientColor=none;fontFamily=Times New Roman;fontStyle=1;shadow=0;" parent="WIyWlLk6GJQsqaUBKTNV-1" vertex="1">
          <mxGeometry x="520" y="360" width="100" height="80" as="geometry" />
        </mxCell>
        <mxCell id="bWyKYytc7MRD8ci_lOKq-28" style="edgeStyle=orthogonalEdgeStyle;rounded=0;orthogonalLoop=1;jettySize=auto;html=1;exitX=0.5;exitY=1;exitDx=0;exitDy=0;entryX=0.5;entryY=0;entryDx=0;entryDy=0;fontColor=default;fontFamily=Times New Roman;fontStyle=1;labelBackgroundColor=none;strokeWidth=1;shadow=0;" parent="WIyWlLk6GJQsqaUBKTNV-1" source="bWyKYytc7MRD8ci_lOKq-14" target="bWyKYytc7MRD8ci_lOKq-15" edge="1">
          <mxGeometry relative="1" as="geometry" />
        </mxCell>
        <mxCell id="bWyKYytc7MRD8ci_lOKq-14" value="Evaluasi Kinerja Model" style="rounded=1;whiteSpace=wrap;html=1;absoluteArcSize=1;arcSize=14;strokeWidth=1;labelBackgroundColor=none;fontColor=default;fillColor=default;gradientColor=none;fontFamily=Times New Roman;fontStyle=1;shadow=0;" parent="WIyWlLk6GJQsqaUBKTNV-1" vertex="1">
          <mxGeometry x="520" y="470" width="100" height="80" as="geometry" />
        </mxCell>
        <mxCell id="bWyKYytc7MRD8ci_lOKq-29" style="edgeStyle=orthogonalEdgeStyle;rounded=0;orthogonalLoop=1;jettySize=auto;html=1;exitX=0.5;exitY=1;exitDx=0;exitDy=0;entryX=0.5;entryY=0;entryDx=0;entryDy=0;entryPerimeter=0;fontColor=default;fontFamily=Times New Roman;fontStyle=1;labelBackgroundColor=none;strokeWidth=1;shadow=0;" parent="WIyWlLk6GJQsqaUBKTNV-1" source="bWyKYytc7MRD8ci_lOKq-15" target="bWyKYytc7MRD8ci_lOKq-16" edge="1">
          <mxGeometry relative="1" as="geometry" />
        </mxCell>
        <mxCell id="bWyKYytc7MRD8ci_lOKq-15" value="Hasil peringkatan tingkat depresi berdasarkan score" style="rounded=1;whiteSpace=wrap;html=1;absoluteArcSize=1;arcSize=14;strokeWidth=1;labelBackgroundColor=none;fontColor=default;fillColor=default;gradientColor=none;fontFamily=Times New Roman;fontStyle=1;shadow=0;" parent="WIyWlLk6GJQsqaUBKTNV-1" vertex="1">
          <mxGeometry x="520" y="580" width="100" height="80" as="geometry" />
        </mxCell>
        <mxCell id="bWyKYytc7MRD8ci_lOKq-16" value="END" style="strokeWidth=1;html=1;shape=mxgraph.flowchart.terminator;whiteSpace=wrap;labelBackgroundColor=none;fontColor=default;fillColor=default;gradientColor=none;fontFamily=Times New Roman;fontStyle=1;shadow=0;" parent="WIyWlLk6GJQsqaUBKTNV-1" vertex="1">
          <mxGeometry x="520" y="700" width="100" height="60" as="geometry" />
        </mxCell>
        <mxCell id="bWyKYytc7MRD8ci_lOKq-18" style="edgeStyle=orthogonalEdgeStyle;rounded=0;orthogonalLoop=1;jettySize=auto;html=1;entryX=0.5;entryY=0;entryDx=0;entryDy=0;entryPerimeter=0;fontColor=default;fontFamily=Times New Roman;fontStyle=1;labelBackgroundColor=none;strokeWidth=1;shadow=0;" parent="WIyWlLk6GJQsqaUBKTNV-1" source="bWyKYytc7MRD8ci_lOKq-17" target="bWyKYytc7MRD8ci_lOKq-1" edge="1">
          <mxGeometry relative="1" as="geometry" />
        </mxCell>
        <mxCell id="bWyKYytc7MRD8ci_lOKq-17" value="START" style="strokeWidth=1;html=1;shape=mxgraph.flowchart.terminator;whiteSpace=wrap;labelBackgroundColor=none;fontColor=default;fillColor=default;gradientColor=none;fontFamily=Times New Roman;fontStyle=1;shadow=0;" parent="WIyWlLk6GJQsqaUBKTNV-1" vertex="1">
          <mxGeometry x="210" y="90" width="100" height="60" as="geometry" />
        </mxCell>
        <mxCell id="Ewnjw3w6Bs5T4CTr_bgc-0" value="Pendetksian &lt;i&gt;Outlier&lt;/i&gt;" style="rounded=1;whiteSpace=wrap;html=1;absoluteArcSize=1;arcSize=14;strokeWidth=1;labelBackgroundColor=none;fontColor=default;fillColor=default;gradientColor=none;fontFamily=Times New Roman;fontStyle=1;shadow=0;" vertex="1" parent="WIyWlLk6GJQsqaUBKTNV-1">
          <mxGeometry x="210" y="580" width="100" height="80" as="geometry" />
        </mxCell>
      </root>
    </mxGraphModel>
  </diagram>
</mxfile>
